Coordinates
version=1
nRows=9
nColumns=24
inDegrees=yes

Units are S.I. units (second, meters, Newtons, ...)
Angles are in degrees.

endheader
time	pelvis_tilt	pelvis_list	pelvis_rotation	pelvis_tx	pelvis_ty	pelvis_tz	hip_flexion_r	hip_adduction_r	hip_rotation_r	knee_angle_r	ankle_angle_r	subtalar_angle_r	mtp_angle_r	hip_flexion_l	hip_adduction_l	hip_rotation_l	knee_angle_l	ankle_angle_l	subtalar_angle_l	mtp_angle_l	lumbar_extension	lumbar_bending	lumbar_rotation
      5.81000000	     10.65233232	      4.03836605	     -5.65375732	      2.16906966	      0.75502573	     -0.18274482	     16.30577824	     -3.90887166	      0.41627020	    -70.98392976	     -8.38176710	    -18.32167782	      0.00000000	    -10.00269577	     11.30807900	      4.22621499	     -2.32213315	     10.61597874	     -9.07654651	      0.00000000	    -22.83898295	     -7.17679082	     -0.24505244
      5.82000000	     10.47278820	      3.62863469	     -4.66246134	      2.17984909	      0.75573328	     -0.18425897	     17.33938612	     -3.23473508	     -0.34867081	    -69.47845791	     -4.91600695	    -18.08253284	      0.00000000	    -10.93175076	     10.77687197	      4.92436536	     -2.17982296	     11.27739382	     -8.50981073	      0.00000000	    -22.92948612	     -6.38037296	     -0.87536336
      5.83000000	     10.24197482	      3.28780914	     -3.74017663	      2.19051216	      0.75608502	     -0.18567834	     18.37630536	     -2.65501413	     -1.02772545	    -67.66862971	     -1.93087563	    -17.91145214	      0.00000000	    -11.72962954	     10.32339364	      5.57722830	     -2.09293426	     11.91790577	     -8.05897960	      0.00000000	    -22.97911613	     -5.69471591	     -1.37948766
      5.84000000	     10.02633517	      3.01078268	     -2.88194079	      2.20110413	      0.75616410	     -0.18696699	     19.29930919	     -2.13726681	     -1.58616037	    -65.52212752	      0.44791529	    -18.02642684	      0.00000000	    -12.49648999	      9.94368803	      6.22202254	     -2.03286453	     12.51806064	     -7.78620746	      0.00000000	    -23.06493761	     -5.12591851	     -1.81724077
      5.85000000	      9.76166548	      2.82611822	     -2.07935307	      2.21166955	      0.75590037	     -0.18812971	     20.17321275	     -1.73596203	     -2.06975433	    -63.05109895	      2.11951833	    -18.59653973	      0.00000000	    -13.17260925	      9.66175724	      6.84974594	     -2.00056218	     13.11695573	     -7.63557872	      0.00000000	    -23.10311824	     -4.69935709	     -2.16441208
      5.86000000	      9.52858013	      2.74903874	     -1.34768147	      2.22222449	      0.75540965	     -0.18913379	     20.88167005	     -1.44669372	     -2.43857643	    -60.23803739	      3.38664435	    -19.32298222	      0.00000000	    -13.85171052	      9.49425804	      7.48374541	     -2.00783932	     13.66554558	     -7.54234099	      0.00000000	    -23.20112275	     -4.44094756	     -2.48630362
      5.87000000	      9.41694104	      2.70407253	     -0.66951543	      2.23284118	      0.75484590	     -0.18999457	     21.26508749	     -1.17674460	     -2.71673992	    -57.00745026	      4.00972256	    -20.55770552	      0.00000000	    -14.72047522	      9.34732420	      8.20917069	     -1.91204258	     14.02860173	     -7.79319361	      0.00000000	    -23.45313050	     -4.24992654	     -2.73194874
      5.88000000	      9.17138414	      2.76097725	     -0.02544826	      2.24355159	      0.75393012	     -0.19074417	     21.63062192	     -1.00742329	     -2.90948752	    -53.41984947	      4.07998288	    -22.15914479	      0.00000000	    -15.44453100	      9.29203282	      8.95967321	     -1.83124626	     14.42640470	     -8.09090362	      0.00000000	    -23.54250395	     -4.19640765	     -2.98863240
      5.89000000	      8.93413423	      2.87182875	      0.57872142	      2.25437494	      0.75287671	     -0.19139073	     21.77548877	     -0.89633542	     -3.05393722	    -49.40792593	      3.78210272	    -23.88910337	      0.00000000	    -16.16791862	      9.28074712	      9.61160923	     -1.79009192	     14.82963341	     -8.28578285	      0.00000000	    -23.64753302	     -4.23186081	     -3.22512705
